<svg xmlns="http://www.w3.org/2000/svg" version="1.1" xmlns:xlink="http://www.w3.org/1999/xlink" xmlns:svgjs="http://svgjs.dev/svgjs" viewBox="0 0 800 800" opacity="0.18" width="800" height="800"><g stroke-width="0.5" stroke="#cccccc" fill="none"><rect width="200" height="160" x="0" y="0"></rect><rect width="200" height="160" x="200" y="0"></rect><rect width="200" height="160" x="400" y="0"></rect><rect width="200" height="160" x="600" y="0"></rect><rect width="200" height="160" x="800" y="0"></rect><rect width="200" height="160" x="0" y="160"></rect><rect width="200" height="160" x="200" y="160"></rect><rect width="200" height="160" x="400" y="160"></rect><rect width="200" height="160" x="600" y="160"></rect><rect width="200" height="160" x="800" y="160"></rect><rect width="200" height="160" x="0" y="320"></rect><rect width="200" height="160" x="200" y="320"></rect><rect width="200" height="160" x="400" y="320"></rect><rect width="200" height="160" x="600" y="320"></rect><rect width="200" height="160" x="800" y="320"></rect><rect width="200" height="160" x="0" y="480"></rect><rect width="200" height="160" x="200" y="480"></rect><rect width="200" height="160" x="400" y="480"></rect><rect width="200" height="160" x="600" y="480"></rect><rect width="200" height="160" x="800" y="480"></rect><rect width="200" height="160" x="0" y="640"></rect><rect width="200" height="160" x="200" y="640"></rect><rect width="200" height="160" x="400" y="640"></rect><rect width="200" height="160" x="600" y="640"></rect><rect width="200" height="160" x="800" y="640"></rect><rect width="200" height="160" x="0" y="800"></rect><rect width="200" height="160" x="200" y="800"></rect><rect width="200" height="160" x="400" y="800"></rect><rect width="200" height="160" x="600" y="800"></rect><rect width="200" height="160" x="800" y="800"></rect></g></svg>